<svg width="160" height="39" viewBox="0 0 160 39" fill="none" xmlns="http://www.w3.org/2000/svg">
<g clip-path="url(#clip0)">
<path d="M41.5501 27.9764C40.9552 27.3352 40.4927 26.583 40.189 25.7628C39.8852 24.9425 39.7463 24.0704 39.7801 23.1964C39.7732 22.282 39.9324 21.3739 40.2501 20.5164C40.528 19.7232 40.975 18.9998 41.5601 18.3964C42.1682 17.7859 42.9018 17.315 43.7101 17.0164C44.6689 16.6595 45.6873 16.4897 46.7101 16.5164H60.8401V20.9564H49.0001C48.6319 20.9529 48.264 20.9796 47.9001 21.0364C47.5497 21.0798 47.2106 21.1883 46.9001 21.3564C46.6074 21.5126 46.3647 21.7483 46.2001 22.0364C46.0082 22.3917 45.9182 22.7932 45.9401 23.1964C45.9108 23.5935 45.9903 23.9911 46.1701 24.3464C46.3327 24.6311 46.5764 24.8609 46.8701 25.0064C47.1834 25.1641 47.5218 25.2656 47.8701 25.3064C48.2345 25.3584 48.6021 25.3851 48.9701 25.3864H55.1701C56.1926 25.3636 57.2103 25.5332 58.1701 25.8864C58.9784 26.185 59.712 26.6559 60.3201 27.2664C60.9007 27.8752 61.35 28.5968 61.6401 29.3864C61.9162 30.2552 62.038 31.1656 62.0001 32.0764C62.0735 33.8556 61.4409 35.5916 60.2401 36.9064C59.5616 37.5565 58.7548 38.0576 57.8715 38.3779C56.9881 38.6982 56.0476 38.8305 55.1101 38.7664H39.7801V34.3464H52.8701C53.2487 34.3402 53.6263 34.3068 54.0001 34.2464C54.3494 34.1984 54.6878 34.0901 55.0001 33.9264C55.2956 33.7694 55.5389 33.5296 55.7001 33.2364C55.8921 32.8811 55.9821 32.4797 55.9601 32.0764C55.9805 31.6733 55.8906 31.2723 55.7001 30.9164C55.5356 30.6283 55.2929 30.3926 55.0001 30.2364C54.6878 30.0728 54.3494 29.9645 54.0001 29.9164C53.6358 29.8642 53.2682 29.8375 52.9001 29.8364H46.7001C45.7641 29.9016 44.8248 29.7698 43.9429 29.4494C43.061 29.129 42.2561 28.6272 41.5801 27.9764H41.5501ZM73.2501 21.2764C72.544 21.5978 71.9364 22.1018 71.4901 22.7364C71.0344 23.3981 70.7211 24.1473 70.5701 24.9364C70.2235 26.7197 70.2235 28.5531 70.5701 30.3364C70.7191 31.1262 71.0326 31.8757 71.4901 32.5364C71.9358 33.174 72.5433 33.6814 73.2501 34.0064C75.0386 34.6999 77.0216 34.6999 78.8101 34.0064C79.5169 33.6814 80.1244 33.174 80.5701 32.5364C81.0277 31.8757 81.3411 31.1262 81.4901 30.3364C81.8368 28.5531 81.8368 26.7197 81.4901 24.9364C81.3391 24.1473 81.0259 23.3981 80.5701 22.7364C80.1238 22.1018 79.5162 21.5978 78.8101 21.2764C77.0216 20.583 75.0386 20.583 73.2501 21.2764ZM65.0001 22.6364C65.5106 21.2665 66.3259 20.0307 67.3845 19.0224C68.443 18.0141 69.717 17.2597 71.1101 16.8164C74.3023 15.8296 77.718 15.8296 80.9101 16.8164C82.3016 17.2584 83.5737 18.0125 84.6291 19.0211C85.6846 20.0298 86.4956 21.2664 87.0001 22.6364C87.5876 24.2366 87.8725 25.9321 87.8401 27.6364C87.8734 29.3408 87.5885 31.0365 87.0001 32.6364C86.4854 34.0077 85.6725 35.2476 84.6201 36.2664C83.5497 37.2598 82.2774 38.0102 80.8901 38.4664C77.698 39.4533 74.2823 39.4533 71.0901 38.4664C69.7046 38.013 68.4349 37.2622 67.3701 36.2664C66.3188 35.2487 65.5089 34.0083 65.0001 32.6364C64.4117 31.0365 64.1268 29.3408 64.1601 27.6364C64.1278 25.9321 64.4126 24.2366 65.0001 22.6364ZM98.8901 21.2764C98.1855 21.6003 97.5786 22.1038 97.1301 22.7364C96.6744 23.3981 96.3611 24.1473 96.2101 24.9364C95.8635 26.7197 95.8635 28.5531 96.2101 30.3364C96.3591 31.1262 96.6726 31.8757 97.1301 32.5364C97.5783 33.1718 98.1851 33.6786 98.8901 34.0064C100.679 34.6999 102.662 34.6999 104.45 34.0064C105.16 33.6817 105.771 33.1744 106.22 32.5364C106.674 31.8735 106.987 31.1248 107.14 30.3364C107.487 28.5531 107.487 26.7197 107.14 24.9364C106.984 24.1489 106.671 23.4008 106.22 22.7364C105.77 22.1015 105.159 21.5976 104.45 21.2764C102.662 20.583 100.679 20.583 98.8901 21.2764ZM90.6701 22.6364C91.1667 21.2709 91.9629 20.034 93.0001 19.0164C94.0616 18.0162 95.3323 17.2647 96.7201 16.8164C99.9157 15.83 103.335 15.83 106.53 16.8164C107.923 17.2577 109.197 18.0115 110.254 19.0201C111.311 20.0288 112.124 21.2657 112.63 22.6364C113.218 24.2366 113.502 25.9321 113.47 27.6364C113.503 29.3408 113.219 31.0365 112.63 32.6364C112.115 34.0077 111.302 35.2476 110.25 36.2664C109.182 37.2576 107.913 38.0078 106.53 38.4664C103.335 39.4529 99.9157 39.4529 96.7201 38.4664C95.3359 38.0101 94.0669 37.2596 93.0001 36.2664C91.9446 35.2502 91.1312 34.0096 90.6201 32.6364C90.0317 31.0365 89.7468 29.3408 89.7801 27.6364C89.7478 25.9321 90.0326 24.2366 90.6201 22.6364H90.6701ZM133.02 17.0964C133.868 17.4518 134.639 17.968 135.29 18.6164C135.908 19.234 136.398 19.9682 136.73 20.7764C137.056 21.556 137.225 22.3917 137.23 23.2364V38.7664H131.5V24.3964C131.494 24.0599 131.454 23.7249 131.38 23.3964C131.292 23.0331 131.129 22.6923 130.9 22.3964C130.636 22.0534 130.293 21.779 129.9 21.5964C129.387 21.3608 128.824 21.2511 128.26 21.2764H122.26V38.7664H116.5V16.5164H130.1C131.13 16.4969 132.152 16.6945 133.1 17.0964H133.02ZM159.84 34.3464V38.7864H150.72C147.347 38.7864 144.723 37.8464 142.85 35.9664C140.977 34.0864 140.027 31.3098 140 27.6364C140 23.9898 140.94 21.2231 142.82 19.3364C144.7 17.4498 147.323 16.5098 150.69 16.5164H159.81V20.9564H151.56C150.912 20.9525 150.264 20.9859 149.62 21.0564C149.05 21.1131 148.501 21.3051 148.02 21.6164C147.532 21.9525 147.144 22.4159 146.9 22.9564C146.577 23.7313 146.394 24.5575 146.36 25.3964H159.36V29.8364H146.36C146.44 30.4564 146.53 31.0364 146.64 31.5764C146.735 32.0948 146.954 32.5822 147.28 32.9964C147.672 33.4595 148.184 33.8055 148.76 33.9964C149.667 34.2698 150.613 34.3915 151.56 34.3564L159.84 34.3464Z" fill="#753DBD"/>
<path d="M32.5001 37.0565C32.5001 37.9065 26.2701 38.6065 18.5801 38.6065C10.8901 38.6065 4.65015 37.9065 4.65015 37.0565C4.65015 36.2065 10.8901 35.5065 18.5801 35.5065C26.2701 35.5065 32.5001 36.1965 32.5001 37.0565Z" fill="#753DBD"/>
<path d="M13.33 29.9664C9.69003 26.1264 2.93004 18.0864 2.93004 13.6764C2.93968 11.065 3.9314 8.55284 5.70812 6.63901C7.48485 4.72518 9.91655 3.54981 12.52 3.34644C13.5012 2.27614 14.6291 1.35027 15.87 0.596438C13.9401 0.216332 11.9498 0.269059 10.0426 0.75082C8.13549 1.23258 6.35895 2.13138 4.84101 3.38245C3.32308 4.63353 2.10155 6.20573 1.26445 7.98577C0.427341 9.76582 -0.00450122 11.7094 3.53763e-05 13.6764C3.53763e-05 20.6764 11 31.8464 12.29 33.0964L13.29 34.0964L14.29 33.0964C14.64 32.7464 15.74 31.6364 17.16 30.0964C16.54 29.3864 15.91 28.6164 15.26 27.8064C14.54 28.6264 13.86 29.3764 13.26 30.0064" fill="#753DBD"/>
<path d="M23.6801 0.346436C20.1464 0.351726 16.7589 1.75783 14.2602 4.25655C11.7615 6.75526 10.3554 10.1427 10.3501 13.6764C10.3501 20.6764 21.3501 31.8464 22.6401 33.0964L23.6401 34.0964L24.6401 33.0964C26.0001 31.8464 37.0001 20.6364 37.0001 13.6764C36.9975 10.1436 35.5936 6.75616 33.0964 4.25716C30.5993 1.75816 27.2129 0.351731 23.6801 0.346436V0.346436ZM23.6801 3.27644C26.4375 3.27908 29.0813 4.37564 31.0311 6.32545C32.9809 8.27525 34.0775 10.919 34.0801 13.6764C33.9584 15.2132 33.4937 16.7031 32.7201 18.0364C32.1511 16.9167 31.3336 15.9419 30.3301 15.1864C30.6728 14.1356 30.7618 13.0185 30.5898 11.9266C30.4178 10.8348 29.9897 9.79918 29.3405 8.90459C28.6913 8.01 27.8395 7.28187 26.8548 6.77979C25.87 6.27771 24.7804 6.01596 23.6751 6.01596C22.5698 6.01596 21.4802 6.27771 20.4954 6.77979C19.5107 7.28187 18.6589 8.01 18.0097 8.90459C17.3605 9.79918 16.9324 10.8348 16.7604 11.9266C16.5884 13.0185 16.6774 14.1356 17.0201 15.1864C16.0166 15.9419 15.1991 16.9167 14.6301 18.0364C13.8565 16.7031 13.3918 15.2132 13.2701 13.6764C13.2727 10.9173 14.3707 8.27201 16.3226 6.32192C18.2746 4.37183 20.9209 3.27643 23.6801 3.27644ZM23.6801 29.9664C21.1356 27.2961 18.7956 24.438 16.6801 21.4164C16.7623 20.1249 17.3177 18.909 18.2402 18.0013C19.1627 17.0936 20.3874 16.5578 21.6801 16.4964C20.885 16.0535 20.2593 15.3592 19.9014 14.5224C19.5434 13.6856 19.4733 12.7536 19.7021 11.8727C19.9309 10.9918 20.4456 10.2117 21.1656 9.65484C21.8855 9.098 22.7699 8.79588 23.6801 8.79588C24.5903 8.79588 25.4747 9.098 26.1946 9.65484C26.9146 10.2117 27.4293 10.9918 27.6581 11.8727C27.8869 12.7536 27.8168 13.6856 27.4588 14.5224C27.1009 15.3592 26.4752 16.0535 25.6801 16.4964C26.9728 16.5578 28.1975 17.0936 29.12 18.0013C30.0424 18.909 30.5979 20.1249 30.6801 21.4164C28.5614 24.4356 26.2216 27.2935 23.6801 29.9664Z" fill="#91D400"/>
</g>

</svg>
